<svg width="24" height="24" viewBox="0 0 24 24" fill="none" xmlns="http://www.w3.org/2000/svg">
<path d="M12 1.33333C9.89035 1.33333 7.82806 1.95892 6.07393 3.13099C4.31981 4.30306 2.95263 5.96896 2.1453 7.91804C1.33797 9.86712 1.12673 12.0118 1.53831 14.081C1.94988 16.1501 2.96578 18.0507 4.45754 19.5425C5.9493 21.0342 7.84992 22.0501 9.91905 22.4617C11.9882 22.8733 14.1329 22.662 16.082 21.8547C18.031 21.0474 19.697 19.6802 20.869 17.9261C22.0411 16.172 22.6667 14.1097 22.6667 12C22.6667 9.17102 21.5429 6.45792 19.5425 4.45753C17.5421 2.45714 14.829 1.33333 12 1.33333ZM16.1333 15.4533C16.0849 15.5266 16.0225 15.5896 15.9496 15.6387C15.8768 15.6878 15.7949 15.722 15.7088 15.7393C15.6227 15.7566 15.534 15.7568 15.4478 15.7398C15.3617 15.7227 15.2797 15.6888 15.2067 15.64L11.2733 12.9733V7.16667C11.2733 6.98985 11.3436 6.82029 11.4686 6.69526C11.5936 6.57024 11.7632 6.5 11.94 6.5C12.1168 6.5 12.2864 6.57024 12.4114 6.69526C12.5364 6.82029 12.6067 6.98985 12.6067 7.16667V12.2667L15.94 14.5267C16.0138 14.5746 16.0774 14.6366 16.1272 14.7092C16.1769 14.7818 16.2117 14.8636 16.2297 14.9497C16.2477 15.0359 16.2484 15.1247 16.2319 15.2112C16.2153 15.2976 16.1819 15.3799 16.1333 15.4533ZM15.9 5.48667C14.962 4.92128 13.9128 4.5655 12.8243 4.44374C11.7358 4.32199 10.6339 4.43713 9.59416 4.78128C8.55439 5.12543 7.60138 5.69044 6.8005 6.43754C5.99963 7.18465 5.36985 8.09616 4.95438 9.10954C4.53891 10.1229 4.34758 11.2142 4.39351 12.3085C4.43944 13.4027 4.72156 14.4741 5.22049 15.4491C5.71943 16.4241 6.42338 17.2797 7.28405 17.957C8.14472 18.6344 9.14173 19.1175 10.2067 19.3733L10 20.42C8.77865 20.1357 7.63352 19.5898 6.64368 18.8198C5.65384 18.0499 4.84288 17.0744 4.26677 15.9605C3.69066 14.8467 3.36313 13.6211 3.30679 12.3683C3.25046 11.1156 3.46665 9.86551 3.94046 8.70445C4.41426 7.54338 5.13439 6.49897 6.05112 5.64331C6.96785 4.78764 8.05936 4.14112 9.25028 3.74835C10.4412 3.35559 11.7032 3.22595 12.9491 3.36838C14.195 3.51081 15.3951 3.92192 16.4667 4.57333L15.9 5.48667Z" fill="#FF9F1C"/>
</svg>
