<svg width="24" height="24" viewBox="0 0 24 24" fill="none" xmlns="http://www.w3.org/2000/svg">
<path d="M22.9772 8.50312L20.9086 6.43453C20.7417 6.26988 20.5192 6.17374 20.2849 6.16507C20.0506 6.15639 19.8216 6.23581 19.643 6.38765C19.3672 6.62237 19.0133 6.74493 18.6515 6.73104C18.2896 6.71715 17.9462 6.56782 17.6892 6.31265C17.4342 6.05572 17.2849 5.71238 17.271 5.35063C17.2572 4.98888 17.3796 4.6351 17.6142 4.35937C17.7661 4.18076 17.8455 3.95173 17.8368 3.71745C17.8281 3.48317 17.732 3.26064 17.5673 3.09375L15.4969 1.02281C15.3219 0.848174 15.0848 0.750092 14.8376 0.750092C14.5904 0.750092 14.3532 0.848174 14.1783 1.02281L10.8806 4.32C10.677 4.52432 10.5235 4.773 10.432 5.04656C10.4142 5.09916 10.3845 5.14694 10.3453 5.1862C10.306 5.22547 10.2582 5.25516 10.2056 5.27297C9.93195 5.36442 9.68324 5.51814 9.47906 5.72203L1.02281 14.1783C0.848174 14.3533 0.750092 14.5904 0.750092 14.8376C0.750092 15.0848 0.848174 15.3219 1.02281 15.4969L3.09375 17.5655C3.26064 17.7301 3.48317 17.8263 3.71745 17.8349C3.95173 17.8436 4.18076 17.7642 4.35937 17.6123C4.63448 17.3757 4.98883 17.2518 5.35144 17.2654C5.71405 17.279 6.05812 17.4292 6.3147 17.6858C6.57129 17.9423 6.72143 18.2864 6.73504 18.649C6.74866 19.0116 6.62474 19.366 6.38812 19.6411C6.23627 19.8197 6.15686 20.0487 6.16554 20.283C6.17421 20.5173 6.27035 20.7398 6.435 20.9067L8.50359 22.9753C8.67856 23.1499 8.91568 23.248 9.16289 23.248C9.4101 23.248 9.64721 23.1499 9.82218 22.9753L18.2784 14.5191C18.4822 14.315 18.6359 14.0664 18.7275 13.793C18.7452 13.7402 18.7749 13.6923 18.8143 13.6529C18.8537 13.6135 18.9016 13.5838 18.9544 13.5661C19.2278 13.4746 19.4763 13.3211 19.6805 13.1175L22.9776 9.81984C23.1517 9.64488 23.2493 9.40814 23.2492 9.16138C23.2491 8.91463 23.1513 8.67796 22.9772 8.50312ZM12.2723 7.11328C12.2027 7.18294 12.12 7.2382 12.029 7.2759C11.938 7.3136 11.8405 7.33301 11.7419 7.33301C11.6434 7.33301 11.5459 7.3136 11.4549 7.2759C11.3639 7.2382 11.2812 7.18294 11.2116 7.11328L10.672 6.57375C10.5348 6.43239 10.4587 6.24271 10.4602 6.0457C10.4617 5.84869 10.5406 5.66018 10.68 5.5209C10.8193 5.38162 11.0078 5.30276 11.2049 5.30136C11.4019 5.29997 11.5915 5.37615 11.7328 5.51344L12.2723 6.0525C12.342 6.12214 12.3973 6.20483 12.435 6.29584C12.4727 6.38684 12.4921 6.48438 12.4921 6.58289C12.4921 6.68139 12.4727 6.77893 12.435 6.86994C12.3973 6.96095 12.342 7.04363 12.2723 7.11328ZM14.3348 9.17578C14.1942 9.31632 14.0035 9.39528 13.8047 9.39528C13.6059 9.39528 13.4152 9.31632 13.2745 9.17578L12.7589 8.66015C12.6892 8.5905 12.634 8.50781 12.5963 8.41681C12.5586 8.3258 12.5392 8.22827 12.5392 8.12976C12.5392 8.03126 12.5586 7.93372 12.5963 7.84272C12.634 7.75171 12.6892 7.66902 12.7589 7.59937C12.8996 7.4587 13.0904 7.37968 13.2893 7.37968C13.3878 7.37968 13.4853 7.39908 13.5763 7.43677C13.6673 7.47447 13.75 7.52972 13.8197 7.59937L14.3353 8.115C14.4052 8.18464 14.4607 8.26739 14.4986 8.35851C14.5364 8.44963 14.5559 8.54732 14.556 8.64599C14.556 8.74467 14.5366 8.84238 14.4988 8.93353C14.461 9.02468 14.4056 9.10748 14.3358 9.17719L14.3348 9.17578ZM16.3973 11.2383C16.3277 11.3079 16.245 11.3632 16.154 11.4009C16.063 11.4386 15.9655 11.458 15.8669 11.458C15.7684 11.458 15.6709 11.4386 15.5799 11.4009C15.4889 11.3632 15.4062 11.3079 15.3366 11.2383L14.8209 10.7227C14.6837 10.5813 14.6076 10.3916 14.6091 10.1946C14.6106 9.99759 14.6895 9.80908 14.8289 9.6698C14.9682 9.53052 15.1567 9.45166 15.3538 9.45027C15.5508 9.44887 15.7404 9.52505 15.8817 9.66234L16.3973 10.178C16.4674 10.2475 16.5231 10.3302 16.5612 10.4213C16.5993 10.5124 16.619 10.6101 16.6192 10.7088C16.6194 10.8075 16.6001 10.9053 16.5625 10.9966C16.5248 11.0879 16.4695 11.1708 16.3997 11.2406L16.3973 11.2383ZM18.48 13.3261C18.4103 13.3958 18.3277 13.451 18.2367 13.4887C18.1457 13.5264 18.0481 13.5458 17.9496 13.5458C17.8511 13.5458 17.7536 13.5264 17.6626 13.4887C17.5715 13.451 17.4889 13.3958 17.4192 13.3261L16.883 12.787C16.8118 12.7176 16.7552 12.6347 16.7164 12.5432C16.6776 12.4517 16.6574 12.3534 16.6569 12.254C16.6564 12.1546 16.6757 12.0561 16.7137 11.9642C16.7516 11.8723 16.8074 11.7889 16.8779 11.7188C16.9483 11.6486 17.032 11.5932 17.1241 11.5558C17.2161 11.5183 17.3147 11.4995 17.4141 11.5004C17.5135 11.5014 17.6117 11.5221 17.7031 11.5613C17.7944 11.6006 17.877 11.6576 17.9461 11.7291L18.4828 12.2677C18.5524 12.3373 18.6077 12.42 18.6453 12.5111C18.683 12.6021 18.7023 12.6996 18.7023 12.7981C18.7023 12.8966 18.6828 12.9942 18.6451 13.0852C18.6073 13.1762 18.552 13.2588 18.4823 13.3284L18.48 13.3261Z" fill="white"/>
</svg>
